# xmcd CD database file
#
# Track frame offsets:
#	150
#	13685
#	25964
#	42430
#	64018
#	85662
#	101069
#	120389
#	144969
#	161137
#	173946
#	202763
#	216178
#
# Disc length: 3204 seconds
#
# Revision: 0
# Processed by: cddbd v1.5PL3 Copyright (c) Steve Scherf et al.
# Submitted via: CDex 1.50beta10
#
DISCID=aa0c820d
DTITLE=James Cotton - Baby, Don't You Tear My Clothes
DYEAR=2004
DGENRE=Blues
TTITLE0=Coach's Better Days
TTITLE1=Baby, Don't You Tear My Clothes
TTITLE2=When You Got A Good Friend
TTITLE3=Stealin', Stealin'
TTITLE4=Key To The Highway
TTITLE5=I Almost Lost My Mind
TTITLE6=Rainin' In My Heart
TTITLE7=Bring It On Home To Me
TTITLE8=Muleskinner Blues
TTITLE9=How Long Blues
TTITLE10=Mississippi Blues
TTITLE11=Blues For Jacklyn
TTITLE12=Friends
EXTD=YEAR: 2004
EXTT0=
EXTT1=
EXTT2=
EXTT3=
EXTT4=
EXTT5=
EXTT6=
EXTT7=
EXTT8=
EXTT9=
EXTT10=
EXTT11=
EXTT12=
PLAYORDER=
